{"title":"The.Jerky.Boys.1995.DVDRip.720p.x264.Iou1","uid":8879488,"size":1469062578,"categoryP":"video","categoryS":"hd___movies","magnet":"?xt=urn:btih:2450268db94323cb2162c3866f1de79782237db6&amp;dn=The.Jerky.Boys.1995.DVDRip.720p.x264.Iou1&amp;tr=udp%3A%2F%2Ftracker.openbittorrent.com%3A80&amp;tr=udp%3A%2F%2Fopen.demonii.com%3A1337&amp;tr=udp%3A%2F%2Ftracker.coppersurfer.tk%3A6969&amp;tr=udp%3A%2F%2Fexodus.desync.com%3A6969","seeders":1,"leechers":0,"uploader":"jaybee211","files":-1,"time":1378293664,"description":"Genre                                    : Comedy\nFormat                                   : MPEG-4\nFormat profile                           : Base Media / Version 2\nCodec ID                                 : mp42\nFile size                                : 1.37 GiB\nDuration                                 : 1h 18mn\nOverall bit rate mode                    : Variable\nOverall bit rate                         : 2 507 Kbps\n\nVideo\nID                                       : 1\nFormat                                   : AVC\nFormat/Info                              : Advanced Video Codec\nFormat profile                           : &lt;a class=&quot;__cf_email__&quot; href=&quot;/cdn-cgi/l/email-protection&quot; data-cfemail=&quot;c28aaba5aa828ef1ecf3&quot;&gt;[email&amp;#160;protected]&lt;/a&gt;&lt;script cf-hash='f9e31' type=&quot;text/javascript&quot;&gt;\n/* &lt;![CDATA[ */!function(){try{var t=&quot;currentScript&quot;in document?document.currentScript:function(){for(var t=document.getElementsByTagName(&quot;script&quot;),e=t.length;e--;)if(t[e].getAttribute(&quot;cf-hash&quot;))return t[e]}();if(t&amp;&amp;t.previousSibling){var e,r,n,i,c=t.previousSibling,a=c.getAttribute(&quot;data-cfemail&quot;);if(a){for(e=&quot;&quot;,r=parseInt(a.substr(0,2),16),n=2;a.length-n;n+=2)i=parseInt(a.substr(n,2),16)^r,e+=String.fromCharCode(i);e=document.createTextNode(e),c.parentNode.replaceChild(e,c)}}}catch(u){}}();/* ]]&gt; */&lt;/script&gt;\nFormat settings, CABAC                   : Yes\nFormat settings, ReFrames                : 4 frames\nCodec ID                                 : avc1\nCodec ID/Info                            : Advanced Video Coding\nDuration                                 : 1h 18mn\nBit rate mode                            : Variable\nBit rate                                 : 2 187 Kbps\nMaximum bit rate                         : 8 465 Kbps\nWidth                                    : 1 280 pixels\nHeight                                   : 684 pixels\nDisplay aspect ratio                     : 1.85:1\nFrame rate mode                          : Constant\nFrame rate                               : 25.000 fps\nColor space                              : YUV\nChroma subsampling                       : 4:2:0\nBit depth                                : 8 bits\nScan type                                : Progressive\nBits/(Pixel*Frame)                       : 0.100\nStream size                              : 1.19 GiB (87%)\n\nAudio\nID                                       : 2\nFormat                                   : AAC\nFormat/Info                              : Advanced Audio Codec\nFormat profile                           : LC\nCodec ID                                 : 40\nDuration                                 : 1h 18mn\nBit rate mode                            : Variable\nBit rate                                 : 317 Kbps\nMaximum bit rate                         : 359 Kbps\nChannel(s)                               : 2 channels\nChannel positions                        : Front: L R\nSampling rate                            : 48.0 KHz\nCompression mode                         : Lossy\nDelay relative to video                  : 40ms\nStream size                              : 177 MiB (13%)\nLanguage                                 : English\nSubtitles                                ; None\n\nIMDB. &lt;a href=&quot; http://www.imdb.com/title/tt0110189/&quot; rel=&quot;nofollow&quot; target=&quot;_NEW&quot;&gt; http://www.imdb.com/title/tt0110189/&lt;/a&gt;\n\nStoryline.\nWhen two unemployed telephone pranksters decide to use their vocal &quot;talents&quot; to impersonate a Chicago mob boss and curry favor with organized crime in New York, the trouble begins. It isn't long before Johnny and Kamal (the &quot;Jerky Boys&quot; of crank call fame) are wanted by the local mafia, the police, and their neighbor.\n\nScreens. &lt;a href=&quot; http://bayimg.com/pAplbaAeF&quot; rel=&quot;nofollow&quot; target=&quot;_NEW&quot;&gt; http://bayimg.com/pAplbaAeF&lt;/a&gt;\n\n         &lt;a href=&quot; http://bayimg.com/PAPLDaaef&quot; rel=&quot;nofollow&quot; target=&quot;_NEW&quot;&gt; http://bayimg.com/PAPLDaaef&lt;/a&gt;\n\n         &lt;a href=&quot; http://bayimg.com/paPLiaAEF&quot; rel=&quot;nofollow&quot; target=&quot;_NEW&quot;&gt; http://bayimg.com/paPLiaAEF&lt;/a&gt;\n\n         &lt;a href=&quot; http://bayimg.com/PApLmaAeF&quot; rel=&quot;nofollow&quot; target=&quot;_NEW&quot;&gt; http://bayimg.com/PApLmaAeF&lt;/a&gt;\n\n         &lt;a href=&quot; http://bayimg.com/aAPmaaaef&quot; rel=&quot;nofollow&quot; target=&quot;_NEW&quot;&gt; http://bayimg.com/aAPmaaaef&lt;/a&gt;\n\nCover. &lt;a href=&quot; http://bayimg.com/oApLPAAEF&quot; rel=&quot;nofollow&quot; target=&quot;_NEW&quot;&gt; http://bayimg.com/oApLPAAEF&lt;/a&gt;\n\nEnjoy.","torrent":{"xt":"urn:btih:2450268db94323cb2162c3866f1de79782237db6","amp;dn":"The.Jerky.Boys.1995.DVDRip.720p.x264.Iou1","amp;tr":["udp%3A%2F%2Ftracker.openbittorrent.com%3A80","udp%3A%2F%2Fopen.demonii.com%3A1337","udp%3A%2F%2Ftracker.coppersurfer.tk%3A6969","udp%3A%2F%2Fexodus.desync.com%3A6969"],"infoHash":"2450268db94323cb2162c3866f1de79782237db6","infoHashBuffer":{"type":"Buffer","data":[36,80,38,141,185,67,35,203,33,98,195,134,111,29,231,151,130,35,125,182]},"announce":[],"urlList":[]}}